<?xml version="1.0" standalone="no"?>
<svg xmlns:xlink="http://www.w3.org/1999/xlink" id="wave" style="transform:rotate(180deg); transition: 0.3s" viewBox="0 0 1440 230" version="1.1" xmlns="http://www.w3.org/2000/svg"><defs><linearGradient id="sw-gradient-0" x1="0" x2="0" y1="1" y2="0"><stop stop-color="rgba(98, 91, 255, 1)" offset="0%"/><stop stop-color="rgba(214, 105, 160, 1)" offset="100%"/></linearGradient></defs><path style="transform:translate(0, 0px); opacity:1" fill="url(#sw-gradient-0)" d="M0,138L60,138L120,184L180,184L240,23L300,46L360,69L420,23L480,207L540,0L600,92L660,161L720,0L780,207L840,46L900,69L960,46L1020,207L1080,46L1140,138L1200,46L1260,115L1320,138L1380,138L1440,161L1440,230L1380,230L1320,230L1260,230L1200,230L1140,230L1080,230L1020,230L960,230L900,230L840,230L780,230L720,230L660,230L600,230L540,230L480,230L420,230L360,230L300,230L240,230L180,230L120,230L60,230L0,230Z"/></svg>