<?xml version="1.0" standalone="no"?><svg xmlns="http://www.w3.org/2000/svg" viewBox="0 0 1440 320"><path fill="#625BFF" fill-opacity="1" d="M0,224L11.4,218.7C22.9,213,46,203,69,170.7C91.4,139,114,85,137,58.7C160,32,183,32,206,37.3C228.6,43,251,53,274,64C297.1,75,320,85,343,106.7C365.7,128,389,160,411,149.3C434.3,139,457,85,480,90.7C502.9,96,526,160,549,186.7C571.4,213,594,203,617,208C640,213,663,235,686,218.7C708.6,203,731,149,754,106.7C777.1,64,800,32,823,21.3C845.7,11,869,21,891,53.3C914.3,85,937,139,960,149.3C982.9,160,1006,128,1029,117.3C1051.4,107,1074,117,1097,144C1120,171,1143,213,1166,224C1188.6,235,1211,213,1234,170.7C1257.1,128,1280,64,1303,69.3C1325.7,75,1349,149,1371,165.3C1394.3,181,1417,139,1429,117.3L1440,96L1440,0L1428.6,0C1417.1,0,1394,0,1371,0C1348.6,0,1326,0,1303,0C1280,0,1257,0,1234,0C1211.4,0,1189,0,1166,0C1142.9,0,1120,0,1097,0C1074.3,0,1051,0,1029,0C1005.7,0,983,0,960,0C937.1,0,914,0,891,0C868.6,0,846,0,823,0C800,0,777,0,754,0C731.4,0,709,0,686,0C662.9,0,640,0,617,0C594.3,0,571,0,549,0C525.7,0,503,0,480,0C457.1,0,434,0,411,0C388.6,0,366,0,343,0C320,0,297,0,274,0C251.4,0,229,0,206,0C182.9,0,160,0,137,0C114.3,0,91,0,69,0C45.7,0,23,0,11,0L0,0Z"></path></svg>