<?xml version="1.0" standalone="no"?><svg xmlns="http://www.w3.org/2000/svg" viewBox="0 0 1440 320"><path fill="#D669A0" fill-opacity="1" d="M0,96L12.6,106.7C25.3,117,51,139,76,160C101.1,181,126,203,152,176C176.8,149,202,75,227,69.3C252.6,64,278,128,303,170.7C328.4,213,354,235,379,208C404.2,181,429,107,455,80C480,53,505,75,531,74.7C555.8,75,581,53,606,69.3C631.6,85,657,139,682,154.7C707.4,171,733,149,758,128C783.2,107,808,85,834,85.3C858.9,85,884,107,909,122.7C934.7,139,960,149,985,133.3C1010.5,117,1036,75,1061,53.3C1086.3,32,1112,32,1137,53.3C1162.1,75,1187,117,1213,165.3C1237.9,213,1263,267,1288,272C1313.7,277,1339,235,1364,218.7C1389.5,203,1415,213,1427,218.7L1440,224L1440,0L1427.4,0C1414.7,0,1389,0,1364,0C1338.9,0,1314,0,1288,0C1263.2,0,1238,0,1213,0C1187.4,0,1162,0,1137,0C1111.6,0,1086,0,1061,0C1035.8,0,1011,0,985,0C960,0,935,0,909,0C884.2,0,859,0,834,0C808.4,0,783,0,758,0C732.6,0,707,0,682,0C656.8,0,632,0,606,0C581.1,0,556,0,531,0C505.3,0,480,0,455,0C429.5,0,404,0,379,0C353.7,0,328,0,303,0C277.9,0,253,0,227,0C202.1,0,177,0,152,0C126.3,0,101,0,76,0C50.5,0,25,0,13,0L0,0Z"></path></svg>